<mxfile host="app.diagrams.net" modified="2021-08-25T13:20:43.615Z" agent="5.0 (Windows NT 10.0; Win64; x64) AppleWebKit/537.36 (KHTML, like Gecko) Chrome/83.0.4103.97 Safari/537.36" etag="4bQmvrtac826cl4VRlxr" version="14.9.8" type="github">
  <diagram id="6a731a19-8d31-9384-78a2-239565b7b9f0" name="Page-1">
    <mxGraphModel dx="2844" dy="1490" grid="1" gridSize="10" guides="1" tooltips="1" connect="1" arrows="1" fold="1" page="1" pageScale="1" pageWidth="1169" pageHeight="827" background="none" math="0" shadow="0">
      <root>
        <mxCell id="0" />
        <mxCell id="1" parent="0" />
        <mxCell id="1361" style="endArrow=classic;strokeWidth=6;strokeColor=#E85642;html=1;entryX=0;entryY=0.5;entryDx=0;entryDy=0;endFill=1;" parent="1" source="1515" target="oeTmbz4eT_nRihqz5Box-1543" edge="1">
          <mxGeometry relative="1" as="geometry">
            <mxPoint x="1709.389928404546" y="447.10066191942883" as="targetPoint" />
          </mxGeometry>
        </mxCell>
        <mxCell id="1362" style="endArrow=classic;strokeWidth=6;strokeColor=#1699D3;html=1;entryX=0;entryY=0.5;entryDx=0;entryDy=0;endFill=1;" parent="1" source="1515" target="oeTmbz4eT_nRihqz5Box-1549" edge="1">
          <mxGeometry relative="1" as="geometry">
            <mxPoint x="1950.0143802513494" y="830.1864462828762" as="targetPoint" />
          </mxGeometry>
        </mxCell>
        <mxCell id="1364" style="endArrow=classic;strokeWidth=6;strokeColor=#736ca8;html=1;entryX=0;entryY=0.5;entryDx=0;entryDy=0;endFill=1;" parent="1" source="1515" target="oeTmbz4eT_nRihqz5Box-1555" edge="1">
          <mxGeometry relative="1" as="geometry">
            <mxPoint x="1720.0777019306088" y="1199.7680041704089" as="targetPoint" />
          </mxGeometry>
        </mxCell>
        <mxCell id="1365" value="" style="edgeStyle=none;endArrow=classic;strokeWidth=6;strokeColor=#F08705;html=1;entryX=0;entryY=0.5;entryDx=0;entryDy=0;endFill=1;" parent="1" source="1515" target="oeTmbz4eT_nRihqz5Box-1559" edge="1">
          <mxGeometry x="181" y="226.5" width="100" height="100" as="geometry">
            <mxPoint x="181" y="326.5" as="sourcePoint" />
            <mxPoint x="281" y="226.5" as="targetPoint" />
          </mxGeometry>
        </mxCell>
        <mxCell id="1428" value="" style="edgeStyle=none;endArrow=classic;strokeWidth=3;strokeColor=#F08E81;html=1;exitX=1;exitY=0.5;exitDx=0;exitDy=0;entryX=0;entryY=0.5;entryDx=0;entryDy=0;endFill=1;" parent="1" source="oeTmbz4eT_nRihqz5Box-1543" target="oeTmbz4eT_nRihqz5Box-1575" edge="1">
          <mxGeometry x="31" y="106.5" width="100" height="100" as="geometry">
            <mxPoint x="1777.2259380980522" y="358.73566037093406" as="sourcePoint" />
            <mxPoint x="2430" y="900.5" as="targetPoint" />
          </mxGeometry>
        </mxCell>
        <mxCell id="1430" value="" style="edgeStyle=none;endArrow=classic;strokeWidth=3;strokeColor=#F08E81;html=1;exitX=1;exitY=0.5;exitDx=0;exitDy=0;entryX=0;entryY=0.5;entryDx=0;entryDy=0;endFill=1;" parent="1" source="oeTmbz4eT_nRihqz5Box-1543" target="oeTmbz4eT_nRihqz5Box-1545" edge="1">
          <mxGeometry x="31" y="106.5" width="100" height="100" as="geometry">
            <mxPoint x="1817.7493281854408" y="397.0188873393263" as="sourcePoint" />
            <mxPoint x="1918.9921313633881" y="361.5" as="targetPoint" />
          </mxGeometry>
        </mxCell>
        <mxCell id="1449" value="" style="edgeStyle=none;endArrow=classic;strokeWidth=3;strokeColor=#64BBE2;html=1;entryX=0;entryY=0.5;entryDx=0;entryDy=0;exitX=1;exitY=0.5;exitDx=0;exitDy=0;endFill=1;" parent="1" source="oeTmbz4eT_nRihqz5Box-1549" target="oeTmbz4eT_nRihqz5Box-1575" edge="1">
          <mxGeometry x="-24" y="196.5" width="100" height="100" as="geometry">
            <mxPoint x="-24" y="296.5" as="sourcePoint" />
            <mxPoint x="2300" y="910" as="targetPoint" />
          </mxGeometry>
        </mxCell>
        <mxCell id="1466" value="" style="edgeStyle=none;endArrow=none;strokeWidth=3;strokeColor=#A29DC5;html=1;exitX=0;exitY=0.5;exitDx=0;exitDy=0;entryX=1;entryY=0.5;entryDx=0;entryDy=0;endFill=0;startArrow=classic;startFill=1;" parent="1" source="oeTmbz4eT_nRihqz5Box-1575" target="oeTmbz4eT_nRihqz5Box-1555" edge="1">
          <mxGeometry x="251" y="-103.5" width="100" height="100" as="geometry">
            <mxPoint x="2400" y="1052.75" as="sourcePoint" />
            <mxPoint x="351" y="-103.5" as="targetPoint" />
          </mxGeometry>
        </mxCell>
        <mxCell id="1479" value="" style="edgeStyle=none;endArrow=none;strokeWidth=3;strokeColor=#F5AF58;html=1;entryX=1;entryY=0.5;entryDx=0;entryDy=0;exitX=0;exitY=0.5;exitDx=0;exitDy=0;endFill=0;startArrow=classic;startFill=1;" parent="1" source="oeTmbz4eT_nRihqz5Box-1576" target="oeTmbz4eT_nRihqz5Box-1559" edge="1">
          <mxGeometry x="243.5" y="39" width="100" height="100" as="geometry">
            <mxPoint x="2290" y="1210" as="sourcePoint" />
            <mxPoint x="343.5" y="39" as="targetPoint" />
          </mxGeometry>
        </mxCell>
        <mxCell id="1515" value="&lt;font style=&quot;font-size: 40px&quot;&gt;广州起义&lt;/font&gt;" style="ellipse;whiteSpace=wrap;html=1;shadow=0;fontFamily=Helvetica;fontSize=30;fontColor=#2F5B7C;align=center;strokeColor=#2F5B7C;strokeWidth=6;fillColor=#FFFFFF;fontStyle=1;gradientColor=none;" parent="1" vertex="1">
          <mxGeometry x="900" y="740" width="179" height="193.5" as="geometry" />
        </mxCell>
        <mxCell id="oeTmbz4eT_nRihqz5Box-1567" style="edgeStyle=orthogonalEdgeStyle;rounded=0;orthogonalLoop=1;jettySize=auto;html=1;exitX=0.5;exitY=1;exitDx=0;exitDy=0;fontSize=20;fontColor=#FFFFFF;strokeWidth=3;" edge="1" parent="1" source="oeTmbz4eT_nRihqz5Box-1543" target="oeTmbz4eT_nRihqz5Box-1549">
          <mxGeometry relative="1" as="geometry" />
        </mxCell>
        <mxCell id="oeTmbz4eT_nRihqz5Box-1543" value="&lt;span&gt;&lt;font style=&quot;font-size: 30px&quot;&gt;国民党内蒋介石集团和汪精卫集团相继叛变革命，广东省国民党当局亦在广州等地大肆屠杀共产党人和革命人民，实行白色恐怖&lt;/font&gt;&lt;/span&gt;" style="rounded=0;whiteSpace=wrap;html=1;shadow=0;fontSize=20;fontColor=#FFFFFF;strokeWidth=2;fillColor=#E85642;" vertex="1" parent="1">
          <mxGeometry x="1330" y="370" width="510" height="178.5" as="geometry" />
        </mxCell>
        <mxCell id="oeTmbz4eT_nRihqz5Box-1571" style="edgeStyle=orthogonalEdgeStyle;rounded=0;orthogonalLoop=1;jettySize=auto;html=1;exitX=0.5;exitY=1;exitDx=0;exitDy=0;fontSize=20;fontColor=#FFFFFF;endArrow=classic;endFill=1;strokeWidth=3;" edge="1" parent="1" source="oeTmbz4eT_nRihqz5Box-1545" target="oeTmbz4eT_nRihqz5Box-1552">
          <mxGeometry relative="1" as="geometry" />
        </mxCell>
        <mxCell id="oeTmbz4eT_nRihqz5Box-1545" value="&lt;font style=&quot;font-size: 30px&quot;&gt;1927年4月&lt;/font&gt;" style="ellipse;whiteSpace=wrap;html=1;aspect=fixed;shadow=0;fontSize=20;fontColor=#FFFFFF;strokeWidth=2;fillColor=#F08E81;" vertex="1" parent="1">
          <mxGeometry x="1996.5" y="384.25" width="150" height="150" as="geometry" />
        </mxCell>
        <mxCell id="oeTmbz4eT_nRihqz5Box-1568" style="edgeStyle=orthogonalEdgeStyle;rounded=0;orthogonalLoop=1;jettySize=auto;html=1;exitX=0.5;exitY=1;exitDx=0;exitDy=0;fontSize=20;fontColor=#FFFFFF;endArrow=classic;endFill=1;strokeWidth=3;" edge="1" parent="1" source="oeTmbz4eT_nRihqz5Box-1549" target="oeTmbz4eT_nRihqz5Box-1555">
          <mxGeometry relative="1" as="geometry" />
        </mxCell>
        <mxCell id="oeTmbz4eT_nRihqz5Box-1549" value="&lt;font style=&quot;font-size: 30px&quot;&gt;&lt;span lang=&quot;ZH-CN&quot; style=&quot;font-family: &amp;#34;simsun&amp;#34;&quot;&gt;国民党武汉政府所属张发奎&lt;/span&gt;&lt;span style=&quot;font-family: &amp;#34;simsun&amp;#34;&quot;&gt;&lt;span lang=&quot;ZH-CN&quot;&gt;第二方面军&lt;/span&gt;4&lt;span lang=&quot;ZH-CN&quot;&gt;军，乘国民党南京政府所属第&lt;/span&gt;8&lt;span lang=&quot;ZH-CN&quot;&gt;路军在广东省东江地区进攻南昌起义军之际，从南昌进至广州，同桂系军阀李济深&lt;/span&gt;&lt;span lang=&quot;ZH-CN&quot;&gt;争夺广东地盘。&lt;/span&gt;&lt;/span&gt;&lt;/font&gt;" style="rounded=0;whiteSpace=wrap;html=1;shadow=0;fontSize=20;fontColor=#FFFFFF;strokeWidth=2;fillColor=#1699D3;" vertex="1" parent="1">
          <mxGeometry x="1325" y="630" width="520" height="220.5" as="geometry" />
        </mxCell>
        <mxCell id="oeTmbz4eT_nRihqz5Box-1572" style="edgeStyle=orthogonalEdgeStyle;rounded=0;orthogonalLoop=1;jettySize=auto;html=1;exitX=0.5;exitY=1;exitDx=0;exitDy=0;fontSize=20;fontColor=#FFFFFF;endArrow=classic;endFill=1;strokeWidth=3;" edge="1" parent="1" source="oeTmbz4eT_nRihqz5Box-1552" target="oeTmbz4eT_nRihqz5Box-1556">
          <mxGeometry relative="1" as="geometry" />
        </mxCell>
        <mxCell id="oeTmbz4eT_nRihqz5Box-1552" value="&lt;font style=&quot;font-size: 30px&quot;&gt;1927年9月&lt;/font&gt;" style="ellipse;whiteSpace=wrap;html=1;aspect=fixed;shadow=0;fontSize=20;fontColor=#FFFFFF;strokeWidth=2;fillColor=#64BBE2;" vertex="1" parent="1">
          <mxGeometry x="1995.5" y="662.9399999999999" width="154.62" height="154.62" as="geometry" />
        </mxCell>
        <mxCell id="oeTmbz4eT_nRihqz5Box-1554" value="" style="edgeStyle=none;endArrow=classic;strokeWidth=3;strokeColor=#64BBE2;html=1;entryX=0;entryY=0.5;entryDx=0;entryDy=0;exitX=1;exitY=0.5;exitDx=0;exitDy=0;endFill=1;" edge="1" parent="1" source="oeTmbz4eT_nRihqz5Box-1549" target="oeTmbz4eT_nRihqz5Box-1552">
          <mxGeometry x="-14" y="206.5" width="100" height="100" as="geometry">
            <mxPoint x="1766" y="677.9999999999998" as="sourcePoint" />
            <mxPoint x="1922" y="583" as="targetPoint" />
          </mxGeometry>
        </mxCell>
        <mxCell id="oeTmbz4eT_nRihqz5Box-1569" style="edgeStyle=orthogonalEdgeStyle;rounded=0;orthogonalLoop=1;jettySize=auto;html=1;exitX=0.5;exitY=1;exitDx=0;exitDy=0;entryX=0.5;entryY=0;entryDx=0;entryDy=0;fontSize=20;fontColor=#FFFFFF;endArrow=classic;endFill=1;strokeWidth=3;" edge="1" parent="1" source="oeTmbz4eT_nRihqz5Box-1555" target="oeTmbz4eT_nRihqz5Box-1559">
          <mxGeometry relative="1" as="geometry" />
        </mxCell>
        <mxCell id="oeTmbz4eT_nRihqz5Box-1555" value="&lt;span style=&quot;font-size: 30px ; font-family: &amp;#34;simsun&amp;#34;&quot;&gt;&lt;span lang=&quot;ZH-CN&quot;&gt;海员举行的罢工，得到各业工人的援助，&lt;/span&gt;2&lt;span lang=&quot;ZH-CN&quot;&gt;万多工人举着镰刀斧头红旗，向反动政府示威，显示了广州工人阶级的觉悟和力量。&lt;/span&gt;&lt;/span&gt;" style="rounded=0;whiteSpace=wrap;html=1;shadow=0;fontSize=20;fontColor=#FFFFFF;strokeWidth=2;fillColor=#736CA8;" vertex="1" parent="1">
          <mxGeometry x="1325" y="933.5" width="520" height="184" as="geometry" />
        </mxCell>
        <mxCell id="oeTmbz4eT_nRihqz5Box-1573" style="edgeStyle=orthogonalEdgeStyle;rounded=0;orthogonalLoop=1;jettySize=auto;html=1;exitX=0.5;exitY=1;exitDx=0;exitDy=0;fontSize=20;fontColor=#FFFFFF;endArrow=classic;endFill=1;strokeWidth=3;" edge="1" parent="1" source="oeTmbz4eT_nRihqz5Box-1556" target="oeTmbz4eT_nRihqz5Box-1560">
          <mxGeometry relative="1" as="geometry" />
        </mxCell>
        <mxCell id="oeTmbz4eT_nRihqz5Box-1556" value="&lt;font style=&quot;font-size: 30px&quot;&gt;1927年10月14日&lt;/font&gt;" style="ellipse;whiteSpace=wrap;html=1;aspect=fixed;shadow=0;fontSize=20;fontColor=#FFFFFF;strokeWidth=2;fillColor=#A29DC5;" vertex="1" parent="1">
          <mxGeometry x="1996.62" y="948.25" width="154.5" height="154.5" as="geometry" />
        </mxCell>
        <mxCell id="oeTmbz4eT_nRihqz5Box-1558" value="" style="edgeStyle=none;endArrow=none;strokeWidth=3;strokeColor=#A29DC5;html=1;exitX=0;exitY=0.5;exitDx=0;exitDy=0;entryX=1;entryY=0.5;entryDx=0;entryDy=0;endFill=0;startArrow=classic;startFill=1;" edge="1" parent="1" source="oeTmbz4eT_nRihqz5Box-1556" target="oeTmbz4eT_nRihqz5Box-1555">
          <mxGeometry x="261" y="-93.5" width="100" height="100" as="geometry">
            <mxPoint x="2190" y="1133" as="sourcePoint" />
            <mxPoint x="1380" y="1190" as="targetPoint" />
          </mxGeometry>
        </mxCell>
        <mxCell id="oeTmbz4eT_nRihqz5Box-1570" style="edgeStyle=orthogonalEdgeStyle;rounded=0;orthogonalLoop=1;jettySize=auto;html=1;exitX=0.5;exitY=1;exitDx=0;exitDy=0;entryX=0.5;entryY=0;entryDx=0;entryDy=0;fontSize=20;fontColor=#FFFFFF;endArrow=classic;endFill=1;strokeWidth=3;" edge="1" parent="1" source="oeTmbz4eT_nRihqz5Box-1559" target="oeTmbz4eT_nRihqz5Box-1563">
          <mxGeometry relative="1" as="geometry" />
        </mxCell>
        <mxCell id="oeTmbz4eT_nRihqz5Box-1559" value="&lt;font style=&quot;font-size: 30px&quot;&gt;&lt;span lang=&quot;ZH-CN&quot; style=&quot;font-family: &amp;#34;simsun&amp;#34;&quot;&gt;工农革命军第&lt;/span&gt;&lt;span style=&quot;font-family: &amp;#34;simsun&amp;#34;&quot;&gt;2&lt;span lang=&quot;ZH-CN&quot;&gt;师（由南昌起义军第&lt;/span&gt;24&lt;span lang=&quot;ZH-CN&quot;&gt;师余部编成）和海丰、陆丰农民赤卫军及农民群众，再次举行起义，占领了两县全境，并建立了两县的苏维埃政府。&lt;/span&gt;&lt;/span&gt;&lt;/font&gt;" style="rounded=0;whiteSpace=wrap;html=1;shadow=0;fontSize=20;fontColor=#FFFFFF;strokeWidth=2;fillColor=#F08705;" vertex="1" parent="1">
          <mxGeometry x="1325" y="1200" width="520" height="211" as="geometry" />
        </mxCell>
        <mxCell id="oeTmbz4eT_nRihqz5Box-1574" style="edgeStyle=orthogonalEdgeStyle;rounded=0;orthogonalLoop=1;jettySize=auto;html=1;exitX=0.5;exitY=1;exitDx=0;exitDy=0;fontSize=20;fontColor=#FFFFFF;endArrow=classic;endFill=1;strokeWidth=3;" edge="1" parent="1" source="oeTmbz4eT_nRihqz5Box-1560" target="oeTmbz4eT_nRihqz5Box-1565">
          <mxGeometry relative="1" as="geometry" />
        </mxCell>
        <mxCell id="oeTmbz4eT_nRihqz5Box-1560" value="&lt;font style=&quot;font-size: 30px&quot;&gt;1927年10月30日&lt;/font&gt;" style="ellipse;whiteSpace=wrap;html=1;aspect=fixed;shadow=0;fontSize=20;fontColor=#FFFFFF;strokeWidth=2;fillColor=#F5AF58;" vertex="1" parent="1">
          <mxGeometry x="1996.5" y="1228.25" width="154.5" height="154.5" as="geometry" />
        </mxCell>
        <mxCell id="oeTmbz4eT_nRihqz5Box-1562" value="" style="edgeStyle=none;endArrow=none;strokeWidth=3;strokeColor=#F5AF58;html=1;exitX=0;exitY=0.5;exitDx=0;exitDy=0;entryX=1;entryY=0.5;entryDx=0;entryDy=0;endFill=0;startArrow=classic;startFill=1;" edge="1" parent="1" source="oeTmbz4eT_nRihqz5Box-1560" target="oeTmbz4eT_nRihqz5Box-1559">
          <mxGeometry x="253.5" y="49" width="100" height="100" as="geometry">
            <mxPoint x="2050" y="1220" as="sourcePoint" />
            <mxPoint x="1940" y="1330" as="targetPoint" />
          </mxGeometry>
        </mxCell>
        <mxCell id="oeTmbz4eT_nRihqz5Box-1563" value="&lt;font face=&quot;simsun&quot;&gt;&lt;span style=&quot;font-size: 30px&quot;&gt;......&lt;/span&gt;&lt;/font&gt;" style="rounded=0;whiteSpace=wrap;html=1;shadow=0;fontSize=20;fontColor=#ffffff;strokeWidth=2;fillColor=#6d8764;strokeColor=#3A5431;" vertex="1" parent="1">
          <mxGeometry x="1327" y="1490" width="516" height="107" as="geometry" />
        </mxCell>
        <mxCell id="oeTmbz4eT_nRihqz5Box-1564" value="" style="edgeStyle=none;endArrow=classic;strokeWidth=6;strokeColor=#3A5431;html=1;entryX=0;entryY=0.5;entryDx=0;entryDy=0;exitX=0.726;exitY=0.961;exitDx=0;exitDy=0;exitPerimeter=0;fillColor=#6d8764;endFill=1;" edge="1" parent="1" source="1515" target="oeTmbz4eT_nRihqz5Box-1563">
          <mxGeometry x="191" y="236.5" width="100" height="100" as="geometry">
            <mxPoint x="1068.7488525151757" y="908.0426013751339" as="sourcePoint" />
            <mxPoint x="1470" y="1264.5" as="targetPoint" />
          </mxGeometry>
        </mxCell>
        <mxCell id="oeTmbz4eT_nRihqz5Box-1565" value="。。。" style="ellipse;whiteSpace=wrap;html=1;aspect=fixed;shadow=0;fontSize=20;fontColor=#FFFFFF;strokeWidth=2;fillColor=#009900;" vertex="1" parent="1">
          <mxGeometry x="2013.87" y="1483.5" width="120" height="120" as="geometry" />
        </mxCell>
        <mxCell id="oeTmbz4eT_nRihqz5Box-1575" value="&lt;font style=&quot;font-size: 40px&quot;&gt;广州&lt;/font&gt;" style="ellipse;whiteSpace=wrap;html=1;shadow=0;fontFamily=Helvetica;fontSize=30;fontColor=#2F5B7C;align=center;strokeColor=#2F5B7C;strokeWidth=6;fillColor=#FFFFFF;fontStyle=1;gradientColor=none;" vertex="1" parent="1">
          <mxGeometry x="2450" y="827" width="141" height="146.5" as="geometry" />
        </mxCell>
        <mxCell id="oeTmbz4eT_nRihqz5Box-1576" value="&lt;font style=&quot;font-size: 40px&quot;&gt;广东&amp;nbsp;&lt;/font&gt;" style="ellipse;whiteSpace=wrap;html=1;shadow=0;fontFamily=Helvetica;fontSize=30;fontColor=#2F5B7C;align=center;strokeColor=#2F5B7C;strokeWidth=6;fillColor=#FFFFFF;fontStyle=1;gradientColor=none;" vertex="1" parent="1">
          <mxGeometry x="2417.76" y="1000" width="173.24" height="180" as="geometry" />
        </mxCell>
        <mxCell id="oeTmbz4eT_nRihqz5Box-1577" value="" style="edgeStyle=none;endArrow=none;strokeWidth=3;html=1;exitX=0;exitY=0.5;exitDx=0;exitDy=0;entryX=1;entryY=0.5;entryDx=0;entryDy=0;endFill=0;startArrow=classic;startFill=1;strokeColor=#009900;" edge="1" parent="1" source="oeTmbz4eT_nRihqz5Box-1565" target="oeTmbz4eT_nRihqz5Box-1563">
          <mxGeometry x="918.5" y="126.25" width="100" height="100" as="geometry">
            <mxPoint x="2661.4999999999964" y="1382.75" as="sourcePoint" />
            <mxPoint x="2510" y="1382.75" as="targetPoint" />
          </mxGeometry>
        </mxCell>
      </root>
    </mxGraphModel>
  </diagram>
</mxfile>
